# xmcd
#
# Track frame offsets: 
#        150
#        15548
#        32894
#        49089
#        80360
#        101079
#        111738
#        127534
#        143041
#        163726
#        180157
#        197539
#        210478
#        233367
#
# Disc length: 3390 seconds
#
# Revision: 0
# Processed by: cddbd v1.5.2PL0 Copyright (c) Steve Scherf et al.
# Submitted via: ExactAudioCopy v0.99pb3
#
DISCID=aa0d3c0e
DTITLE=Eric Bibb and Needed Time - Good Stuff
DYEAR=1997
DGENRE=Blues
TTITLE0=Good Stuff
TTITLE1=Saucer 'n' Cup
TTITLE2=Shingle by Shingle
TTITLE3=Don't Ever Let Nobody Drag Your Spirit Down
TTITLE4=Where The Green Grass Grows
TTITLE5=Blacksmith Island
TTITLE6=New World Comin' Through
TTITLE7=Too Much Whiskey
TTITLE8=Nothin' Like You Used To Do
TTITLE9=All Of My Love
TTITLE10=A Simple Song
TTITLE11=Happy Home Recipe
TTITLE12=Done Laid Around
TTITLE13=Rough Waters
EXTD=
EXTT0=
EXTT1=
EXTT2=
EXTT3=
EXTT4=
EXTT5=
EXTT6=
EXTT7=
EXTT8=
EXTT9=
EXTT10=
EXTT11=
EXTT12=
EXTT13=
PLAYORDER=
